<svg xmlns="http://www.w3.org/2000/svg" xmlns:xlink="http://www.w3.org/1999/xlink" width="210.872" height="46" viewBox="0 0 210.872 46">
  <defs>
    <clipPath id="clip-path">
      <rect id="Rectangle_2" data-name="Rectangle 2" width="210.872" height="46" fill="#253e66"/>
    </clipPath>
  </defs>
  <g id="Group_5326" data-name="Group 5326" transform="translate(-50 -31)">
    <g id="Group_3733" data-name="Group 3733">
      <g id="Group_3" data-name="Group 3" transform="translate(50 31)" style="mix-blend-mode: normal;isolation: isolate">
        <rect id="Rectangle_1" data-name="Rectangle 1" width="4.281" height="24.727" transform="translate(25.343 14.135)" fill="#4398d7"/>
        <g id="Group_2" data-name="Group 2">
          <g id="Group_1" data-name="Group 1" clip-path="url(#clip-path)">
            <path id="Path_1" data-name="Path 1" d="M165.374,98.474a9.08,9.08,0,1,0,9.111,9.078,8.734,8.734,0,0,0-9.111-9.078m.039,14.215c-3.154,0-4.737-2.473-4.737-5.127s1.621-5.171,4.737-5.171a4.925,4.925,0,0,1,4.737,5.171c0,2.621-1.594,5.127-4.737,5.127" transform="translate(-122.876 -77.399)" fill="#d82f80"/>
            <path id="Path_2" data-name="Path 2" d="M68.566,30.34a4.584,4.584,0,0,1-4.456,4.879c-2.748,0-4.209-2.016-4.209-4.671,0,0,.22-8.363.22-9.122a11.122,11.122,0,0,0-11.105-11.1,10.345,10.345,0,0,0-1.5.1c-.088-.181-.165-.357-.253-.549a17.5,17.5,0,0,0-32.827,3.792q-.652-.063-1.308-.061C4.176,13.608-.033,20.2,0,26.659s3.912,12.77,13.127,12.77a13.034,13.034,0,0,0,9.407-3.682l-3.2-3.215a9.126,9.126,0,0,1-6.209,2.511c-6.121,0-8.5-4.281-8.528-8.385s2.533-8.594,8.528-8.594a6.324,6.324,0,0,1,.912.044,8.424,8.424,0,0,1,4.66,1.923,12.651,12.651,0,0,1-.264-2.517,13.348,13.348,0,0,1,.264-2.627,13.078,13.078,0,0,1,24.359-3.522q.137.264.264.549a12.811,12.811,0,0,1,1.148,3.847q.049.346.082.692a1.455,1.455,0,0,1,.165-.154,6.65,6.65,0,0,1,4.072-1.533h.225a6.688,6.688,0,0,1,6.594,5.462V30.587c0,5.413,3.05,8.561,7.22,8.561a7.772,7.772,0,0,0,5.907-2.621l.28,2.368h3.847V21.422H68.582Z" transform="translate(0 -0.001)" fill="#4398d7"/>
            <path id="Path_3" data-name="Path 3" d="M373.155,66.047v9.66c-1.022-1.808-3.89-2.8-5.731-2.8-5.088,0-8.874,3.115-8.874,9.127,0,5.731,3.847,9.127,8.984,9.127a6.322,6.322,0,0,0,5.621-2.791l.286,2.407h4.028V66.047Zm-5.341,21.117a4.9,4.9,0,0,1-4.945-5.132,4.81,4.81,0,0,1,4.945-5.088,5.11,5.11,0,0,1,0,10.22" transform="translate(-281.814 -51.912)" fill="#4398d7"/>
            <path id="Path_4" data-name="Path 4" d="M459.478,66.688h5.055V76.816l9.5-10.127h6.632L470.578,76.794l10.605,14.474h-6.594l-7.583-10.732-2.473,2.511v8.242h-5.055Z" transform="translate(-361.141 -52.416)" fill="#253e66"/>
            <path id="Path_5" data-name="Path 5" d="M579.184,95.208a7.451,7.451,0,0,1,3.138,2.687,8.985,8.985,0,0,1,1.445,3.759,23.717,23.717,0,0,1,.154,3.61H570.689a4.383,4.383,0,0,0,1.9,3.846,4.824,4.824,0,0,0,2.621.681,4.021,4.021,0,0,0,2.638-.835,3.924,3.924,0,0,0,.973-1.258h4.852a5.929,5.929,0,0,1-1.764,3.3,8.83,8.83,0,0,1-6.836,2.648,9.891,9.891,0,0,1-6.4-2.236q-2.78-2.231-2.747-7.275,0-4.726,2.506-7.242a8.759,8.759,0,0,1,6.5-2.522,10.4,10.4,0,0,1,4.253.841m-7.11,4.1a4.945,4.945,0,0,0-1.269,2.808h8.188a3.933,3.933,0,0,0-1.264-2.868,4.165,4.165,0,0,0-2.819-.978,3.764,3.764,0,0,0-2.835,1.039" transform="translate(-444.806 -74.166)" fill="#253e66"/>
            <path id="Path_6" data-name="Path 6" d="M667.857,95.208a7.451,7.451,0,0,1,3.138,2.687,8.914,8.914,0,0,1,1.451,3.758,23.049,23.049,0,0,1,.154,3.61H659.362a4.383,4.383,0,0,0,1.9,3.846,4.825,4.825,0,0,0,2.627.671,4.023,4.023,0,0,0,2.638-.835,3.924,3.924,0,0,0,.978-1.247h4.852a5.952,5.952,0,0,1-1.758,3.3,8.876,8.876,0,0,1-6.841,2.648,9.923,9.923,0,0,1-6.4-2.236q-2.748-2.231-2.775-7.275,0-4.726,2.505-7.242a8.759,8.759,0,0,1,6.5-2.522,10.38,10.38,0,0,1,4.27.841m-7.11,4.1a4.946,4.946,0,0,0-1.253,2.808h8.188a3.957,3.957,0,0,0-1.269-2.868,4.165,4.165,0,0,0-2.83-.978,3.764,3.764,0,0,0-2.835,1.039" transform="translate(-514.489 -74.166)" fill="#253e66"/>
            <path id="Path_7" data-name="Path 7" d="M764.81,97.07q2.226,2.352,2.2,6.9,0,4.8-2.2,7.325a7.055,7.055,0,0,1-5.495,2.517,5.884,5.884,0,0,1-3.627-1.1,7.009,7.009,0,0,1-1.544-1.753v9.484h-4.72V95.12h4.555v2.687a7.527,7.527,0,0,1,1.649-1.868,6.044,6.044,0,0,1,3.791-1.22,7.193,7.193,0,0,1,5.39,2.352m-3.643,3.418a3.39,3.39,0,0,0-3.143-1.615,3.572,3.572,0,0,0-3.566,2.429,9.133,9.133,0,0,0-.506,3.3q0,3.165,1.7,4.451a3.913,3.913,0,0,0,2.4.753,3.467,3.467,0,0,0,3.055-1.539,7.979,7.979,0,0,0,.088-7.775Z" transform="translate(-589.034 -74.445)" fill="#253e66"/>
            <path id="Path_8" data-name="Path 8" d="M854.051,95.169a7.467,7.467,0,0,1,3.143,2.687,8.977,8.977,0,0,1,1.445,3.758,22.9,22.9,0,0,1,.159,3.61H845.561a4.35,4.35,0,0,0,1.9,3.846,4.818,4.818,0,0,0,2.615.681,3.7,3.7,0,0,0,3.621-2.083h4.852a6,6,0,0,1-1.764,3.3,8.829,8.829,0,0,1-6.836,2.648,9.891,9.891,0,0,1-6.4-2.236q-2.78-2.231-2.775-7.275,0-4.726,2.5-7.242a8.792,8.792,0,0,1,6.522-2.544,10.383,10.383,0,0,1,4.253.852m-7.11,4.1a4.946,4.946,0,0,0-1.264,2.808h8.187a3.977,3.977,0,0,0-1.264-2.868,4.165,4.165,0,0,0-2.8-.978,3.787,3.787,0,0,0-2.857,1.039" transform="translate(-660.834 -74.127)" fill="#253e66"/>
            <path id="Path_9" data-name="Path 9" d="M946.2,94.65h.412v4.868c-.3-.033-.549-.055-.8-.066h-.549c-1.912,0-3.2.626-3.846,1.868a7.263,7.263,0,0,0-.549,3.237v8.682H936.08V95.062h4.533v3.17a9.97,9.97,0,0,1,1.9-2.484,5.221,5.221,0,0,1,3.473-1.1Z" transform="translate(-735.742 -74.388)" fill="#253e66"/>
          </g>
        </g>
      </g>
    </g>
  </g>
</svg>
